<svg width="1600" height="1000" viewBox="0 0 1600 1000" fill="none" xmlns="http://www.w3.org/2000/svg">
<rect width="1600" height="1000" rx="40" fill="#09101D"/>
<rect x="40" y="40" width="1520" height="920" rx="32" fill="#0E182B" stroke="#1F2B44"/>
<rect x="90" y="90" width="1420" height="140" rx="28" fill="url(#paint0_linear)"/>
<rect x="130" y="130" width="260" height="22" rx="11" fill="#F2F6FF"/>
<rect x="130" y="167" width="220" height="12" rx="6" fill="#D9E8FF" fill-opacity="0.75"/>
<rect x="90" y="270" width="330" height="250" rx="28" fill="#101D34" stroke="#21304A"/>
<rect x="120" y="310" width="130" height="18" rx="9" fill="#F2F6FF"/>
<rect x="120" y="350" width="90" height="90" rx="20" fill="#16253C"/>
<rect x="220" y="350" width="90" height="90" rx="20" fill="#16253C"/>
<rect x="420" y="270" width="470" height="250" rx="28" fill="#101D34" stroke="#21304A"/>
<rect x="460" y="310" width="190" height="18" rx="9" fill="#F2F6FF"/>
<path d="M480 440C520 390 590 350 660 370C720 388 770 460 850 400" stroke="#34D5FF" stroke-width="18" stroke-linecap="round"/>
<rect x="930" y="270" width="580" height="250" rx="28" fill="#101D34" stroke="#21304A"/>
<rect x="970" y="310" width="220" height="18" rx="9" fill="#F2F6FF"/>
<rect x="970" y="360" width="480" height="16" rx="8" fill="#172840"/>
<rect x="970" y="400" width="440" height="16" rx="8" fill="#172840"/>
<rect x="970" y="440" width="400" height="16" rx="8" fill="#172840"/>
<rect x="90" y="560" width="1420" height="300" rx="28" fill="#101D34" stroke="#21304A"/>
<rect x="130" y="600" width="220" height="18" rx="9" fill="#F2F6FF"/>
<rect x="130" y="660" width="1340" height="54" rx="18" fill="#13233A"/>
<rect x="130" y="736" width="1340" height="54" rx="18" fill="#13233A"/>
<defs>
<linearGradient id="paint0_linear" x1="90" y1="90" x2="1510" y2="230" gradientUnits="userSpaceOnUse">
<stop stop-color="#7C3AED"/>
<stop offset="1" stop-color="#06B6D4"/>
</linearGradient>
</defs>
</svg>
