<svg width="1600" height="1000" viewBox="0 0 1600 1000" fill="none" xmlns="http://www.w3.org/2000/svg">
<rect width="1600" height="1000" rx="40" fill="#08111F"/>
<rect x="40" y="40" width="1520" height="920" rx="32" fill="#0E182B" stroke="#1F2B44"/>
<rect x="90" y="90" width="1420" height="120" rx="24" fill="#101D34"/>
<rect x="130" y="130" width="300" height="20" rx="10" fill="#F2F6FF"/>
<rect x="130" y="165" width="240" height="12" rx="6" fill="#95A6C7"/>
<rect x="90" y="250" width="430" height="640" rx="28" fill="#101D34" stroke="#21304A"/>
<rect x="130" y="290" width="180" height="18" rx="9" fill="#F2F6FF"/>
<rect x="130" y="340" width="340" height="18" rx="9" fill="#16253C"/>
<rect x="130" y="380" width="340" height="18" rx="9" fill="#16253C"/>
<rect x="130" y="420" width="340" height="18" rx="9" fill="#16253C"/>
<rect x="130" y="480" width="200" height="52" rx="18" fill="#DFF7FF"/>
<rect x="560" y="250" width="950" height="300" rx="28" fill="#101D34" stroke="#21304A"/>
<rect x="600" y="290" width="240" height="18" rx="9" fill="#F2F6FF"/>
<rect x="600" y="340" width="860" height="16" rx="8" fill="#172840"/>
<rect x="600" y="380" width="820" height="16" rx="8" fill="#172840"/>
<rect x="600" y="420" width="760" height="16" rx="8" fill="#172840"/>
<rect x="560" y="590" width="460" height="300" rx="28" fill="#101D34" stroke="#21304A"/>
<rect x="600" y="630" width="160" height="18" rx="9" fill="#F2F6FF"/>
<circle cx="700" cy="760" r="82" stroke="#34D5FF" stroke-width="24" stroke-dasharray="340 160"/>
<text x="650" y="775" fill="#F2F6FF" font-size="42" font-family="Arial">74%</text>
<rect x="1050" y="590" width="460" height="300" rx="28" fill="#101D34" stroke="#21304A"/>
<rect x="1090" y="630" width="180" height="18" rx="9" fill="#F2F6FF"/>
<rect x="1090" y="690" width="340" height="18" rx="9" fill="#172840"/>
<rect x="1090" y="730" width="300" height="18" rx="9" fill="#172840"/>
<rect x="1090" y="770" width="260" height="18" rx="9" fill="#172840"/>
<rect x="1090" y="820" width="150" height="44" rx="16" fill="url(#paint0_linear)"/>
<defs>
<linearGradient id="paint0_linear" x1="1090" y1="820" x2="1240" y2="864" gradientUnits="userSpaceOnUse">
<stop stop-color="#7C3AED"/>
<stop offset="1" stop-color="#06B6D4"/>
</linearGradient>
</defs>
</svg>
